<?xml version="1.0" encoding="UTF-8" standalone="no"?>
<svg
   fill="none"
   height="2500"
   width="2500"
   viewBox="24.974000000000036 32.14499999999995 206.94599999999997 191.3099999999999"
   version="1.1"
   id="svg6"
   sodipodi:docname="09-huggingface.svg"
   inkscape:version="1.3.2 (091e20e, 2023-11-25, custom)"
   xmlns:inkscape="http://www.inkscape.org/namespaces/inkscape"
   xmlns:sodipodi="http://sodipodi.sourceforge.net/DTD/sodipodi-0.dtd"
   xmlns="http://www.w3.org/2000/svg"
   xmlns:svg="http://www.w3.org/2000/svg">
  <defs
     id="defs6" />
  <sodipodi:namedview
     id="namedview6"
     pagecolor="#ffffff"
     bordercolor="#000000"
     borderopacity="0.25"
     inkscape:showpageshadow="2"
     inkscape:pageopacity="0.0"
     inkscape:pagecheckerboard="0"
     inkscape:deskcolor="#d1d1d1"
     inkscape:zoom="0.060881894"
     inkscape:cx="1396.1458"
     inkscape:cy="2800.5042"
     inkscape:window-width="1920"
     inkscape:window-height="1057"
     inkscape:window-x="892"
     inkscape:window-y="-8"
     inkscape:window-maximized="1"
     inkscape:current-layer="svg6" />
  <g
     id="g6"
     transform="translate(276.01006,8.1579328)"
     inkscape:export-filename="09-huggingface.png"
     inkscape:export-xdpi="96"
     inkscape:export-ydpi="96">
    <path
       d="m 230.721,172.7 a 18.97,18.97 0 0 0 -2.575,-5.692 c 0.25,-0.917 0.441,-1.849 0.568,-2.791 0.829,-5.976 -1.243,-11.447 -5.147,-15.68 -2.115,-2.312 -4.382,-3.839 -6.783,-4.776 a 90.602,90.602 0 0 0 2.377,-20.568 c 0,-3.163 -0.179,-6.261 -0.479,-9.313 a 105.88,105.88 0 0 0 -0.567,-4.56 90.985,90.985 0 0 0 -3.051,-13.21 91.22,91.22 0 0 0 -3.054,-8.374 91.93,91.93 0 0 0 -6.041,-11.754 81.369,81.369 0 0 0 -4.907,-7.262 68.979,68.979 0 0 0 -2.704,-3.446 90.535,90.535 0 0 0 -9.033,-9.486 69.938,69.938 0 0 0 -3.315,-2.862 81.76,81.76 0 0 0 -3.424,-2.704 96.056,96.056 0 0 0 -7.262,-4.907 c -13.781,-8.37 -29.942,-13.17 -47.215,-13.17 -50.292,0 -91.052,40.762 -91.052,91.051 -0.002,7.012 0.81,14 2.42,20.824 -2.16,0.938 -4.23,2.4 -6.15,4.515 -3.903,4.231 -5.976,9.682 -5.147,15.658 0.126,0.949 0.315,1.889 0.567,2.813 a 19.006,19.006 0 0 0 -2.573,5.694 c -1.2,4.561 -0.805,8.674 0.72,12.278 -1.658,4.71 -1.244,9.726 0.915,14.087 1.57,3.185 3.817,5.649 6.587,7.851 3.293,2.618 7.415,4.842 12.387,6.976 5.932,2.53 13.173,4.907 16.466,5.779 8.506,2.202 16.662,3.598 24.928,3.666 11.777,0.109 21.919,-2.66 29.18,-9.747 a 88.02,88.02 0 0 0 10.752,0.654 93.752,93.752 0 0 0 11.358,-0.715 c 7.244,7.132 17.425,9.926 29.245,9.814 8.265,-0.066 16.421,-1.462 24.905,-3.667 3.315,-0.872 10.553,-3.249 16.488,-5.779 4.972,-2.137 9.094,-4.361 12.409,-6.975 2.749,-2.203 4.994,-4.666 6.565,-7.851 2.181,-4.362 2.573,-9.378 0.938,-14.088 1.51,-3.604 1.903,-7.726 0.704,-12.283 z m -8.44,11.973 c 1.671,3.171 1.778,6.754 0.304,10.091 -2.236,5.057 -7.79,9.041 -18.577,13.318 -6.708,2.66 -12.85,4.361 -12.904,4.376 -8.872,2.301 -16.896,3.47 -23.842,3.47 -11.502,0 -20.061,-3.174 -25.489,-9.442 a 85.461,85.461 0 0 1 -27.747,0.158 c -5.435,6.164 -13.945,9.284 -25.35,9.284 -6.947,0 -14.97,-1.169 -23.843,-3.47 -0.054,-0.015 -6.194,-1.716 -12.904,-4.376 -10.786,-4.277 -16.342,-8.258 -18.577,-13.318 -1.474,-3.337 -1.367,-6.92 0.304,-10.091 0.154,-0.295 0.32,-0.582 0.497,-0.86 a 12.803,12.803 0 0 1 -1.728,-10.341 c 0.664,-2.523 2.035,-4.621 3.897,-6.128 a 12.75,12.75 0 0 1 -1.73,-4.822 c -0.536,-3.714 0.697,-7.422 3.47,-10.446 2.16,-2.353 5.213,-3.648 8.593,-3.648 h 0.09 a 84.45,84.45 0 0 1 -3.832,-25.235 c 0,-46.671 37.836,-84.51 84.514,-84.51 46.677,0 84.513,37.835 84.513,84.51 a 84.398,84.398 0 0 1 -3.859,25.299 c 0.408,-0.04 0.808,-0.06 1.201,-0.061 3.38,0 6.434,1.295 8.592,3.648 2.773,3.021 4.007,6.732 3.47,10.446 a 12.757,12.757 0 0 1 -1.729,4.822 c 1.862,1.507 3.234,3.605 3.897,6.128 a 12.803,12.803 0 0 1 -1.728,10.341 c 0.177,0.275 0.345,0.562 0.497,0.857 z"
       fill="#ffffff"
       id="path1" />
    <path
       d="m 221.784,183.816 a 12.798,12.798 0 0 0 1.728,-10.341 c -0.664,-2.523 -2.036,-4.621 -3.897,-6.128 a 12.74,12.74 0 0 0 1.729,-4.822 c 0.537,-3.714 -0.696,-7.422 -3.47,-10.446 -2.158,-2.353 -5.212,-3.648 -8.592,-3.648 -0.393,0 -0.793,0.021 -1.201,0.061 a 84.415,84.415 0 0 0 3.852,-25.297 c 0,-46.672 -37.836,-84.51 -84.509,-84.51 -46.674,0 -84.514,37.834 -84.514,84.51 a 84.46,84.46 0 0 0 3.832,25.235 h -0.09 c -3.38,0 -6.433,1.294 -8.592,3.647 -2.773,3.021 -4.007,6.733 -3.47,10.446 a 12.762,12.762 0 0 0 1.73,4.823 c -1.862,1.506 -3.234,3.604 -3.898,6.127 a 12.808,12.808 0 0 0 1.73,10.343 c -0.178,0.278 -0.342,0.565 -0.497,0.86 -1.67,3.171 -1.778,6.754 -0.303,10.091 2.236,5.057 7.79,9.041 18.577,13.318 6.707,2.66 12.85,4.361 12.904,4.376 8.872,2.301 16.896,3.47 23.842,3.47 11.406,0 19.916,-3.12 25.351,-9.284 a 85.49,85.49 0 0 0 27.747,-0.158 c 5.428,6.268 13.987,9.442 25.489,9.442 6.946,0 14.97,-1.169 23.841,-3.47 0.055,-0.015 6.195,-1.716 12.905,-4.376 10.787,-4.277 16.342,-8.261 18.577,-13.318 1.474,-3.337 1.367,-6.92 -0.304,-10.091 -0.152,-0.297 -0.32,-0.585 -0.497,-0.86 z m -111.647,13.181 a 34.659,34.659 0 0 1 -1.502,2.394 c -1.405,2.057 -3.253,3.629 -5.398,4.797 -4.1,2.236 -9.29,3.017 -14.562,3.017 -8.329,0 -16.867,-1.949 -21.652,-3.19 -0.236,-0.061 -29.334,-8.28 -25.65,-15.276 0.62,-1.177 1.64,-1.647 2.925,-1.647 5.187,0 14.632,7.724 18.69,7.724 0.908,0 1.548,-0.386 1.809,-1.328 1.73,-6.204 -26.293,-8.812 -23.933,-17.796 0.416,-1.59 1.546,-2.236 3.134,-2.236 6.858,-10e-4 22.25,12.06 25.469,12.06 0.247,0 0.424,-0.073 0.52,-0.225 0.014,-0.023 0.028,-0.045 0.041,-0.069 1.511,-2.495 0.644,-4.309 -9.707,-10.649 l -0.994,-0.605 c -11.391,-6.894 -19.386,-11.043 -14.84,-15.993 0.524,-0.571 1.266,-0.824 2.167,-0.824 1.068,0 2.36,0.357 3.785,0.957 6.016,2.537 14.354,9.456 17.837,12.473 a 146,146 0 0 1 1.633,1.441 c 0,0 4.41,4.586 7.076,4.586 0.614,0 1.135,-0.242 1.488,-0.84 1.891,-3.188 -17.563,-17.93 -18.66,-24.013 -0.744,-4.121 0.522,-6.209 2.862,-6.209 1.113,0 2.47,0.474 3.97,1.425 4.65,2.951 13.628,18.379 16.915,24.381 1.102,2.011 2.983,2.861 4.678,2.861 3.363,0 5.992,-3.343 0.308,-7.591 -8.543,-6.392 -5.545,-16.84 -1.468,-17.483 0.174,-0.028 0.35,-0.042 0.525,-0.042 3.708,0 5.343,6.389 5.343,6.389 0,0 4.794,12.038 13.029,20.267 7.472,7.469 8.516,13.598 4.162,21.244 z m 26.629,1.41 -0.427,0.051 -0.728,0.083 c -0.383,0.04 -0.767,0.078 -1.152,0.113 l -0.375,0.034 -0.343,0.029 -0.486,0.039 -0.537,0.039 -0.536,0.035 -0.119,0.008 c -0.14,0.008 -0.28,0.017 -0.422,0.024 l -0.179,0.01 c -0.166,0.009 -0.332,0.017 -0.5,0.024 l -0.581,0.025 -0.527,0.018 -0.352,0.01 h -0.179 c -0.11,0 -0.219,0.006 -0.329,0.007 h -0.174 c -0.11,0 -0.219,0 -0.329,0.005 l -0.448,0.006 h -0.625 c -0.491,0 -0.981,-0.005 -1.469,-0.015 l -0.396,-0.009 c -0.113,0 -0.226,-0.005 -0.337,-0.009 l -0.42,-0.012 -0.521,-0.02 -0.47,-0.021 -0.121,-0.005 -0.447,-0.023 c -0.125,-0.007 -0.248,-0.013 -0.372,-0.022 l -0.289,-0.017 a 79.64,79.64 0 0 1 -1.089,-0.076 l -0.38,-0.031 c -0.16,-0.012 -0.32,-0.027 -0.479,-0.041 -0.187,-0.016 -0.374,-0.034 -0.561,-0.052 a 59.687,59.687 0 0 1 -0.939,-0.095 h -0.015 c 4.57,-10.195 2.259,-19.717 -6.976,-28.944 -6.057,-6.049 -10.086,-14.981 -10.922,-16.942 -1.692,-5.805 -6.17,-12.258 -13.607,-12.258 -0.629,0 -1.257,0.05 -1.878,0.148 -3.258,0.513 -6.106,2.388 -8.138,5.21 -2.196,-2.731 -4.33,-4.902 -6.26,-6.128 -2.91,-1.845 -5.814,-2.781 -8.643,-2.781 -3.531,0 -6.687,1.45 -8.887,4.08 l -0.056,0.067 c -0.042,-0.173 -0.082,-0.346 -0.123,-0.52 l -0.005,-0.023 a 73.685,73.685 0 0 1 -1.054,-5.412 c 0,-0.012 0,-0.024 -0.006,-0.036 -0.022,-0.137 -0.042,-0.275 -0.063,-0.412 -0.062,-0.406 -0.12,-0.813 -0.173,-1.22 -0.024,-0.185 -0.05,-0.37 -0.073,-0.555 l -0.068,-0.555 c -0.022,-0.185 -0.04,-0.353 -0.06,-0.529 l -0.006,-0.044 c -0.08,-0.72 -0.15,-1.44 -0.21,-2.162 l -0.022,-0.277 -0.035,-0.472 c -0.01,-0.129 -0.02,-0.259 -0.027,-0.389 0,-0.031 -0.005,-0.061 -0.006,-0.09 a 52.476,52.476 0 0 1 -0.065,-1.088 c -0.01,-0.189 -0.02,-0.377 -0.028,-0.567 l -0.02,-0.496 -0.005,-0.15 -0.016,-0.457 -0.01,-0.389 c 0,-0.155 -0.008,-0.31 -0.01,-0.465 -0.003,-0.155 -0.007,-0.325 -0.008,-0.489 -0.002,-0.164 0,-0.326 -0.005,-0.489 -0.004,-0.164 0,-0.327 0,-0.49 0,-41.853 33.93,-75.784 75.788,-75.784 41.856,0 75.786,33.93 75.786,75.784 v 0.979 c 0,0.163 -0.005,0.327 -0.008,0.489 0,0.135 -0.006,0.268 -0.01,0.405 0,0.12 -0.005,0.241 -0.009,0.357 0,0.153 -0.009,0.306 -0.014,0.459 v 0.012 l -0.021,0.531 c -0.007,0.155 -0.013,0.311 -0.021,0.466 l -0.005,0.11 -0.027,0.496 a 80.723,80.723 0 0 1 -0.241,3.184 v 0.013 c -0.017,0.174 -0.034,0.348 -0.053,0.522 l -0.045,0.411 -0.089,0.804 -0.051,0.407 -0.063,0.479 c -0.023,0.174 -0.046,0.349 -0.072,0.522 -0.026,0.195 -0.055,0.389 -0.084,0.583 l -0.069,0.459 -0.082,0.52 c -0.028,0.173 -0.058,0.345 -0.09,0.517 -0.033,0.173 -0.059,0.345 -0.089,0.517 -0.06,0.344 -0.123,0.688 -0.189,1.031 -0.101,0.513 -0.204,1.025 -0.31,1.537 l -0.11,0.507 c -0.036,0.169 -0.075,0.339 -0.113,0.508 -2.133,-2.073 -4.958,-3.202 -8.073,-3.202 -2.827,0 -5.734,0.935 -8.643,2.78 -1.93,1.226 -4.063,3.398 -6.26,6.128 -2.035,-2.822 -4.883,-4.697 -8.139,-5.21 a 12.05,12.05 0 0 0 -1.878,-0.148 c -7.439,0 -11.914,6.453 -13.607,12.258 -0.84,1.961 -4.87,10.893 -10.932,16.951 -9.229,9.198 -11.557,18.677 -7.059,28.83 z m 78.241,-20.409 -0.03,0.089 a 5.416,5.416 0 0 1 -0.263,0.587 c -0.075,0.14 -0.156,0.276 -0.244,0.408 -0.167,0.249 -0.35,0.487 -0.549,0.711 -0.046,0.052 -0.09,0.104 -0.142,0.155 a 7.853,7.853 0 0 1 -0.22,0.227 c -1.346,1.334 -3.398,2.504 -5.718,3.577 -0.263,0.119 -0.53,0.238 -0.799,0.358 l -0.268,0.119 c -0.179,0.079 -0.358,0.157 -0.546,0.234 -0.179,0.078 -0.365,0.156 -0.551,0.232 l -0.558,0.23 c -1.305,0.537 -2.642,1.049 -3.946,1.554 l -0.558,0.217 -0.551,0.216 c -0.367,0.143 -0.729,0.286 -1.085,0.429 l -0.531,0.214 -0.522,0.213 -0.256,0.108 c -0.171,0.071 -0.338,0.142 -0.505,0.213 -3.837,1.647 -6.598,3.322 -6.018,5.4 0.016,0.059 0.034,0.115 0.054,0.17 0.052,0.154 0.123,0.299 0.212,0.436 0.052,0.081 0.112,0.158 0.179,0.228 0.682,0.709 1.923,0.597 3.488,0.034 0.22,-0.081 0.439,-0.165 0.656,-0.253 l 0.136,-0.056 c 0.358,-0.152 0.737,-0.322 1.124,-0.506 0.097,-0.046 0.195,-0.09 0.293,-0.141 1.914,-0.936 4.083,-2.196 6.235,-3.343 a 55.812,55.812 0 0 1 2.618,-1.325 c 2.038,-0.959 3.954,-1.639 5.494,-1.639 0.723,0 1.361,0.148 1.893,0.488 l 0.089,0.059 c 0.334,0.235 0.614,0.537 0.823,0.887 0.041,0.067 0.081,0.138 0.12,0.211 0.761,1.445 0.124,2.941 -1.367,4.408 -1.431,1.409 -3.657,2.79 -6.187,4.068 -0.188,0.095 -0.376,0.19 -0.567,0.283 -7.53,3.698 -17.391,6.483 -17.528,6.518 -2.628,0.681 -6.386,1.575 -10.62,2.244 l -0.626,0.098 -0.103,0.015 c -0.474,0.072 -0.949,0.139 -1.425,0.201 -0.483,0.065 -0.971,0.124 -1.462,0.179 l -0.09,0.01 a 68.56,68.56 0 0 1 -5.358,0.406 h -0.026 c -0.648,0.023 -1.295,0.035 -1.943,0.035 h -0.747 a 46.38,46.38 0 0 1 -2.959,-0.134 c -0.023,0 -0.048,0 -0.071,-0.006 a 39.666,39.666 0 0 1 -2.149,-0.231 24.641,24.641 0 0 1 -0.715,-0.107 57.653,57.653 0 0 1 -0.725,-0.121 l -0.329,-0.062 -0.025,-0.005 a 26.107,26.107 0 0 1 -1.036,-0.219 c -0.2,-0.045 -0.399,-0.089 -0.596,-0.143 l -0.119,-0.03 c -0.098,-0.024 -0.193,-0.05 -0.29,-0.076 l -0.053,-0.014 -0.308,-0.09 c -0.112,-0.031 -0.224,-0.065 -0.336,-0.098 l -0.039,-0.011 -0.291,-0.089 c -0.11,-0.034 -0.22,-0.07 -0.329,-0.106 l -0.268,-0.089 -0.197,-0.069 c -0.19,-0.067 -0.379,-0.136 -0.566,-0.208 l -0.178,-0.07 -0.147,-0.058 a 23.243,23.243 0 0 1 -0.845,-0.358 l -0.185,-0.09 -0.031,-0.014 c -0.066,-0.031 -0.131,-0.062 -0.197,-0.089 a 17.142,17.142 0 0 1 -0.384,-0.191 l -0.039,-0.019 -0.184,-0.097 a 15.943,15.943 0 0 1 -0.961,-0.546 l -0.172,-0.106 a 8.547,8.547 0 0 1 -0.256,-0.164 l -0.224,-0.148 -0.241,-0.166 -0.144,-0.103 c -0.152,-0.108 -0.301,-0.22 -0.447,-0.335 l -0.233,-0.179 a 15.173,15.173 0 0 1 -0.276,-0.228 c -0.077,-0.063 -0.152,-0.129 -0.227,-0.195 l -0.006,-0.005 c -0.081,-0.071 -0.16,-0.142 -0.239,-0.215 a 11.85,11.85 0 0 1 -0.232,-0.216 l -0.009,-0.009 a 8.569,8.569 0 0 1 -0.235,-0.232 c -0.077,-0.078 -0.156,-0.156 -0.231,-0.236 -0.075,-0.079 -0.152,-0.16 -0.226,-0.243 -0.074,-0.082 -0.142,-0.157 -0.212,-0.238 l -0.023,-0.027 a 9.34,9.34 0 0 1 -0.201,-0.238 12.442,12.442 0 0 1 -0.416,-0.525 c -0.135,-0.18 -0.267,-0.364 -0.396,-0.551 l -0.123,-0.184 c -0.164,-0.24 -0.324,-0.482 -0.479,-0.728 a 18.6,18.6 0 0 1 -0.339,-0.536 c -0.071,-0.113 -0.139,-0.227 -0.207,-0.339 l -0.028,-0.046 c -0.065,-0.11 -0.129,-0.218 -0.191,-0.327 a 3.17,3.17 0 0 1 -0.102,-0.179 c -0.033,-0.062 -0.071,-0.125 -0.106,-0.188 l -0.057,-0.099 -0.035,-0.064 c -0.067,-0.12 -0.133,-0.241 -0.197,-0.363 -0.03,-0.054 -0.059,-0.108 -0.09,-0.16 l -0.089,-0.173 -0.09,-0.171 c -0.225,-0.45 -0.438,-0.906 -0.638,-1.368 l -0.071,-0.169 c -0.046,-0.113 -0.089,-0.225 -0.135,-0.336 -0.022,-0.054 -0.044,-0.107 -0.063,-0.161 a 16.731,16.731 0 0 1 -0.776,-2.639 c -0.011,-0.055 -0.022,-0.11 -0.031,-0.163 a 11.54,11.54 0 0 1 -0.127,-0.806 c -0.008,-0.053 -0.014,-0.106 -0.02,-0.159 l -0.017,-0.162 a 11.337,11.337 0 0 1 -0.049,-0.638 c 0,-0.054 -0.005,-0.108 -0.007,-0.16 a 8.436,8.436 0 0 1 -0.008,-0.318 c -0.056,-4.273 2.106,-8.381 6.729,-13.002 8.235,-8.227 13.029,-20.266 13.029,-20.266 0,0 0.129,-0.505 0.397,-1.232 0.037,-0.101 0.076,-0.205 0.12,-0.314 0.156,-0.407 0.332,-0.807 0.527,-1.197 l 0.039,-0.075 c 0.166,-0.332 0.348,-0.656 0.544,-0.971 0.046,-0.073 0.09,-0.145 0.141,-0.218 0.147,-0.217 0.302,-0.429 0.465,-0.634 0.089,-0.111 0.186,-0.221 0.283,-0.328 0.039,-0.042 0.077,-0.084 0.118,-0.124 0.477,-0.493 1.022,-0.895 1.639,-1.109 l 0.078,-0.026 c 0.052,-0.017 0.104,-0.033 0.157,-0.048 0.061,-0.016 0.122,-0.03 0.185,-0.043 l 0.029,-0.006 c 0.13,-0.026 0.262,-0.043 0.395,-0.052 h 0.011 c 0.069,0 0.139,-0.007 0.21,-0.007 0.089,0 0.172,0 0.259,0.009 0.09,0.008 0.179,0.018 0.269,0.032 0.742,0.118 1.448,0.56 2.056,1.242 0.231,0.26 0.439,0.54 0.621,0.836 0.12,0.192 0.233,0.395 0.34,0.609 0.043,0.089 0.084,0.171 0.124,0.259 a 7.8,7.8 0 0 1 0.28,0.691 c 0.195,0.55 0.342,1.116 0.439,1.692 0.084,0.505 0.134,1.015 0.15,1.526 0.008,0.273 0.008,0.55 0,0.829 a 11.936,11.936 0 0 1 -0.787,3.792 c -0.042,0.111 -0.089,0.223 -0.134,0.335 a 9.264,9.264 0 0 1 -0.302,0.665 c -0.081,0.165 -0.166,0.331 -0.258,0.496 -0.06,0.11 -0.123,0.22 -0.186,0.33 -0.161,0.274 -0.335,0.546 -0.522,0.817 l -0.113,0.162 a 13.628,13.628 0 0 1 -1.472,1.728 15.425,15.425 0 0 1 -1.699,1.47 c -0.602,0.446 -1.167,0.94 -1.689,1.477 -1.503,1.577 -1.853,2.969 -1.515,4.024 0.054,0.166 0.125,0.327 0.211,0.479 0.101,0.174 0.221,0.334 0.357,0.48 l 0.053,0.055 0.054,0.054 c 0.054,0.052 0.111,0.103 0.172,0.153 l 0.06,0.048 c 0.145,0.112 0.299,0.212 0.46,0.3 0.047,0.025 0.089,0.05 0.142,0.074 0.174,0.085 0.353,0.158 0.537,0.217 0.051,0.017 0.102,0.032 0.154,0.048 l 0.065,0.017 0.09,0.024 0.077,0.019 0.084,0.018 0.083,0.017 0.079,0.013 c 0.058,0.01 0.118,0.02 0.178,0.027 l 0.057,0.009 0.104,0.01 0.064,0.007 0.105,0.007 h 0.062 l 0.11,0.006 h 0.346 l 0.099,-0.006 0.114,-0.007 0.139,-0.013 0.13,-0.015 c 0.03,0 0.06,-0.008 0.09,-0.014 0.4,-0.058 0.792,-0.164 1.167,-0.316 l 0.159,-0.067 a 4.819,4.819 0 0 0 0.772,-0.421 c 0.229,-0.15 0.445,-0.318 0.647,-0.503 0.048,-0.043 0.095,-0.089 0.141,-0.133 0.023,-0.022 0.045,-0.043 0.067,-0.067 0.044,-0.045 0.089,-0.089 0.133,-0.138 0.32,-0.352 0.597,-0.74 0.825,-1.157 a 228.925,228.925 0 0 1 6.151,-10.514 l 0.294,-0.471 0.297,-0.471 c 0.148,-0.239 0.298,-0.474 0.447,-0.708 l 0.15,-0.234 c 0.498,-0.78 1.004,-1.555 1.519,-2.324 l 0.305,-0.456 c 0.612,-0.907 1.222,-1.789 1.827,-2.627 l 0.301,-0.415 a 56.224,56.224 0 0 1 2.054,-2.661 l 0.282,-0.338 c 0.047,-0.056 0.09,-0.112 0.141,-0.166 0.093,-0.11 0.186,-0.217 0.277,-0.321 0.046,-0.053 0.089,-0.105 0.138,-0.157 l 0.268,-0.302 0.134,-0.147 c 0.135,-0.145 0.267,-0.284 0.397,-0.417 0.09,-0.09 0.173,-0.179 0.259,-0.263 a 10.5,10.5 0 0 1 1.669,-1.386 l 0.14,-0.09 c 0.134,-0.09 0.273,-0.174 0.415,-0.25 2.364,-1.342 4.321,-1.441 5.448,-0.314 0.682,0.682 1.06,1.813 1.039,3.387 0,0.069 0,0.139 -0.005,0.211 v 0.077 c 0,0.072 -0.006,0.144 -0.012,0.217 0,0.09 -0.01,0.179 -0.019,0.269 -0.009,0.089 -0.014,0.157 -0.023,0.237 0,0.022 -0.004,0.045 -0.008,0.069 -0.006,0.069 -0.015,0.14 -0.025,0.211 0,0.021 0,0.043 -0.008,0.065 a 5.354,5.354 0 0 1 -0.041,0.283 c -0.011,0.09 -0.026,0.174 -0.042,0.262 l -0.026,0.149 a 4.007,4.007 0 0 1 -0.1,0.42 6.16,6.16 0 0 1 -0.283,0.758 10.99,10.99 0 0 1 -0.514,0.987 c -0.104,0.178 -0.211,0.353 -0.322,0.526 -0.114,0.179 -0.234,0.36 -0.358,0.543 -0.316,0.452 -0.644,0.895 -0.985,1.328 l -0.156,0.197 a 50.56,50.56 0 0 1 -1.722,2.035 l -0.187,0.21 c -0.252,0.281 -0.508,0.564 -0.77,0.848 l -0.197,0.214 c -0.131,0.143 -0.268,0.286 -0.4,0.43 -0.131,0.143 -0.268,0.288 -0.406,0.433 l -0.411,0.433 -0.417,0.436 -0.42,0.436 c -0.282,0.292 -0.565,0.584 -0.85,0.876 -4.055,4.159 -8.327,8.304 -9.773,10.888 a 5.365,5.365 0 0 0 -0.262,0.519 c -0.206,0.47 -0.292,0.872 -0.233,1.197 a 0.914,0.914 0 0 0 0.111,0.303 c 0.081,0.141 0.18,0.271 0.295,0.387 0.053,0.052 0.109,0.1 0.168,0.144 0.298,0.212 0.657,0.321 1.023,0.311 h 0.114 l 0.117,-0.009 0.117,-0.013 0.097,-0.014 c 0.013,-0.002 0.027,-0.004 0.04,-0.008 l 0.089,-0.017 0.023,-0.005 0.099,-0.021 0.035,-0.009 0.104,-0.028 c 0.035,-0.01 0.083,-0.023 0.125,-0.037 0.176,-0.053 0.348,-0.116 0.517,-0.188 0.089,-0.036 0.176,-0.075 0.262,-0.117 0.045,-0.02 0.09,-0.041 0.132,-0.063 l 0.134,-0.066 c 0.32,-0.166 0.632,-0.347 0.936,-0.541 l 0.133,-0.09 c 0.045,-0.028 0.09,-0.057 0.133,-0.089 l 0.133,-0.089 0.071,-0.049 0.192,-0.135 c 0.179,-0.123 0.346,-0.25 0.515,-0.379 l 0.015,-0.012 0.269,-0.208 c 0.367,-0.29 0.715,-0.582 1.031,-0.857 l 0.21,-0.184 0.019,-0.018 0.11,-0.097 c 0.258,-0.232 0.488,-0.448 0.679,-0.626 l 0.079,-0.077 c 0.069,-0.065 0.132,-0.126 0.189,-0.178 l 0.112,-0.111 0.04,-0.039 0.011,-0.011 0.117,-0.117 0.074,-0.077 0.009,-0.007 0.035,-0.032 0.044,-0.04 0.014,-0.013 0.037,-0.034 0.204,-0.179 0.114,-0.102 c 0.061,-0.053 0.12,-0.107 0.179,-0.162 l 0.136,-0.121 c 0.025,-0.02 0.049,-0.042 0.074,-0.064 l 0.143,-0.125 0.21,-0.185 0.112,-0.097 c 0.435,-0.378 0.964,-0.835 1.572,-1.35 l 0.249,-0.211 0.411,-0.345 0.421,-0.351 c 0.55,-0.457 1.142,-0.942 1.768,-1.445 l 0.411,-0.33 c 0.35,-0.279 0.709,-0.563 1.073,-0.849 0.147,-0.115 0.296,-0.23 0.448,-0.344 a 100.786,100.786 0 0 1 3.762,-2.788 l 0.384,-0.268 c 0.269,-0.185 0.537,-0.371 0.805,-0.552 l 0.243,-0.164 c 0.479,-0.325 0.965,-0.642 1.455,-0.951 l 0.243,-0.153 0.241,-0.15 c 0.242,-0.15 0.482,-0.297 0.721,-0.44 l 0.239,-0.143 0.478,-0.278 0.469,-0.269 0.095,-0.052 0.371,-0.204 c 0.155,-0.084 0.309,-0.165 0.463,-0.244 l 0.229,-0.118 0.223,-0.112 c 0.078,-0.037 0.155,-0.076 0.231,-0.113 a 21.446,21.446 0 0 1 1.954,-0.845 l 0.41,-0.144 c 0.123,-0.041 0.243,-0.08 0.358,-0.115 l 0.04,-0.012 c 0.062,-0.02 0.124,-0.038 0.185,-0.054 l 0.018,-0.005 c 0.128,-0.037 0.255,-0.069 0.38,-0.099 h 0.009 a 8.156,8.156 0 0 1 1.077,-0.183 c 0.167,-0.017 0.334,-0.026 0.502,-0.025 h 0.084 c 0.112,0 0.22,0.007 0.327,0.018 0.049,0 0.098,0.01 0.146,0.016 h 0.02 c 0.048,0.006 0.096,0.013 0.144,0.024 0.047,0.009 0.095,0.017 0.141,0.028 h 0.015 c 0.047,0.01 0.089,0.022 0.138,0.036 0.254,0.071 0.496,0.181 0.718,0.325 0.109,0.071 0.211,0.151 0.305,0.24 l 0.027,0.026 a 0.805,0.805 0 0 1 0.051,0.05 l 0.049,0.053 c 0.402,0.421 0.734,0.904 0.984,1.43 l 0.038,0.09 a 3.309,3.309 0 0 1 0.042,2.553 4.676,4.676 0 0 1 -0.339,0.715 8.141,8.141 0 0 1 -1.099,1.452 l -0.089,0.095 c -0.133,0.14 -0.271,0.28 -0.416,0.42 -0.064,0.063 -0.131,0.125 -0.198,0.188 l -0.205,0.189 -0.107,0.095 a 22.682,22.682 0 0 1 -1.285,1.057 c -0.586,0.448 -1.183,0.88 -1.791,1.297 a 59.56,59.56 0 0 1 -1.11,0.743 99.67,99.67 0 0 1 -2.786,1.763 c -1.968,1.21 -4.149,2.504 -6.474,3.911 l -0.602,0.365 c -0.659,0.402 -1.281,0.786 -1.867,1.152 l -0.295,0.185 -0.558,0.358 c -0.37,0.237 -0.739,0.476 -1.108,0.715 l -0.297,0.196 c -0.145,0.094 -0.289,0.19 -0.433,0.286 l -0.141,0.09 -0.432,0.291 -0.229,0.157 -0.268,0.186 -0.249,0.173 c -0.417,0.295 -0.805,0.576 -1.162,0.843 l -0.134,0.102 c -0.21,0.159 -0.418,0.321 -0.623,0.486 -0.309,0.249 -0.591,0.487 -0.844,0.716 l -0.124,0.113 c -0.071,0.065 -0.141,0.13 -0.208,0.194 -0.046,0.045 -0.089,0.09 -0.137,0.133 l -0.064,0.064 c -0.143,0.144 -0.283,0.291 -0.418,0.442 l -0.066,0.076 c -0.147,0.17 -0.275,0.333 -0.387,0.492 l -0.05,0.071 c -0.088,0.128 -0.169,0.26 -0.242,0.396 -0.019,0.034 -0.036,0.068 -0.053,0.102 l -0.049,0.102 -0.033,0.074 -0.021,0.05 -0.017,0.045 -0.023,0.061 a 2.55,2.55 0 0 0 -0.13,0.523 l -0.008,0.062 -0.006,0.058 v 0.315 c 0,0.026 0,0.052 0.007,0.08 l 0.005,0.048 c 0,0.026 0.006,0.051 0.01,0.079 0.004,0.026 0.011,0.073 0.019,0.11 v 0.005 c 0.007,0.035 0.014,0.069 0.023,0.104 0.009,0.035 0.018,0.075 0.029,0.111 0.019,0.071 0.043,0.141 0.068,0.211 0.016,0.042 0.031,0.083 0.048,0.124 0,0.008 0.006,0.017 0.01,0.025 l 0.036,0.081 0.05,0.111 c 0.054,0.115 0.113,0.227 0.177,0.336 l 0.066,0.114 0.068,0.114 a 0.426,0.426 0 0 0 0.041,0.054 l 0.022,0.023 0.025,0.023 0.026,0.02 a 0.487,0.487 0 0 0 0.193,0.083 c 0.577,0.13 1.763,-0.347 3.339,-1.179 0.089,-0.048 0.187,-0.098 0.282,-0.15 l 0.48,-0.262 0.234,-0.13 c 0.167,-0.089 0.337,-0.19 0.511,-0.289 l 0.317,-0.179 c 2.083,-1.199 4.571,-2.739 7.143,-4.243 0.241,-0.141 0.483,-0.282 0.725,-0.421 l 0.486,-0.311 c 0.564,-0.323 1.131,-0.642 1.7,-0.957 a 80.121,80.121 0 0 1 2.168,-1.15 l 0.476,-0.241 c 0.316,-0.156 0.629,-0.308 0.938,-0.456 a 40.899,40.899 0 0 1 1.815,-0.809 l 0.335,-0.136 0.04,-0.016 c 1.775,-0.703 3.384,-1.137 4.686,-1.137 0.281,-0.003 0.563,0.021 0.84,0.069 h 0.009 c 0.089,0.016 0.17,0.034 0.253,0.054 h 0.015 c 0.213,0.054 0.42,0.131 0.616,0.23 0.275,0.142 0.522,0.331 0.731,0.559 0.096,0.106 0.181,0.221 0.256,0.343 0.14,0.215 0.25,0.448 0.329,0.692 0.032,0.095 0.06,0.188 0.089,0.287 a 3.93,3.93 0 0 1 -0.06,2.305 z"
       fill="#ff9d00"
       id="path2" />
    <path
       clip-rule="evenodd"
       d="m 203.21,123.685 v -0.491 c 0,-41.854 -33.918,-75.783 -75.775,-75.783 -41.856,0 -75.787,33.931 -75.787,75.783 v 0.164 a 7.13,7.13 0 0 0 0,0.327 c 0.005,0.163 0.007,0.326 0.005,0.489 l 0.005,0.36 0.003,0.129 c 0,0.06 0.002,0.119 0.004,0.179 0.003,0.095 0.005,0.191 0.005,0.286 l 0.011,0.389 0.016,0.457 0.005,0.15 0.02,0.473 v 0.023 c 0.008,0.185 0.018,0.369 0.027,0.553 l 10e-4,0.014 c 0.01,0.188 0.02,0.377 0.032,0.566 0.01,0.174 0.02,0.348 0.033,0.522 l 0.002,0.031 c 0.009,0.149 0.019,0.299 0.03,0.448 l 0.003,0.04 0.033,0.432 0.003,0.028 c 0.006,0.084 0.012,0.168 0.02,0.249 0.06,0.721 0.13,1.442 0.21,2.161 l 0.004,0.045 0.061,0.529 0.068,0.555 0.05,0.377 0.023,0.177 c 0.053,0.408 0.111,0.815 0.173,1.221 l 0.004,0.027 0.059,0.384 c 0.286,1.829 0.64,3.647 1.06,5.45 l 0.005,0.022 0.032,0.135 0.091,0.385 0.056,-0.067 c 2.2,-2.63 5.356,-4.08 8.887,-4.08 2.83,0 5.733,0.936 8.643,2.781 1.93,1.226 4.064,3.397 6.26,6.128 2.032,-2.822 4.88,-4.698 8.138,-5.21 0.621,-0.098 1.25,-0.147 1.878,-0.148 7.436,0 11.915,6.453 13.607,12.258 0.836,1.961 4.865,10.893 10.941,16.935 9.236,9.227 11.547,18.748 6.976,28.943 h 0.016 c 0.311,0.035 0.624,0.067 0.939,0.096 0.187,0.018 0.373,0.036 0.561,0.052 l 0.066,0.006 0.413,0.035 0.38,0.03 c 0.362,0.028 0.725,0.054 1.089,0.077 l 0.289,0.017 0.229,0.014 0.142,0.008 0.447,0.023 0.122,0.005 0.469,0.021 0.522,0.02 0.419,0.012 0.07,0.002 c 0.089,0.004 0.178,0.007 0.267,0.007 l 0.096,0.003 c 0.59,0.014 1.179,0.021 1.769,0.02 h 0.626 l 0.447,-0.005 c 0.11,-0.005 0.219,-0.005 0.33,-0.005 h 0.174 l 0.151,-0.004 c 0.059,-0.002 0.118,-0.004 0.178,-0.004 h 0.179 l 0.351,-0.009 0.528,-0.018 0.581,-0.026 c 0.168,-0.006 0.334,-0.015 0.5,-0.023 l 0.179,-0.011 0.266,-0.014 0.156,-0.009 0.118,-0.008 0.537,-0.035 0.536,-0.039 0.487,-0.039 0.342,-0.029 0.376,-0.034 a 62.347,62.347 0 0 0 1.88,-0.197 l 0.427,-0.051 c -4.499,-10.152 -2.17,-19.632 7.027,-28.822 6.063,-6.058 10.092,-14.99 10.932,-16.952 1.693,-5.804 6.169,-12.257 13.607,-12.257 0.629,0 1.258,0.05 1.879,0.148 3.255,0.512 6.103,2.388 8.138,5.21 2.197,-2.73 4.33,-4.903 6.261,-6.129 2.909,-1.844 5.815,-2.78 8.642,-2.78 3.116,0 5.94,1.13 8.073,3.203 0.039,-0.169 0.077,-0.338 0.114,-0.508 l 0.109,-0.506 c 0.039,-0.185 0.078,-0.37 0.115,-0.555 0.066,-0.327 0.132,-0.654 0.195,-0.984 0.066,-0.342 0.129,-0.686 0.189,-1.03 l 0.031,-0.186 c 0.019,-0.11 0.037,-0.22 0.058,-0.331 0.034,-0.172 0.062,-0.344 0.09,-0.518 l 0.011,-0.066 0.071,-0.453 0.07,-0.459 v -0.004 c 0.051,-0.339 0.099,-0.678 0.144,-1.017 l 0.011,-0.084 0.063,-0.478 0.051,-0.408 0.09,-0.804 0.035,-0.323 0.009,-0.088 c 0.019,-0.174 0.037,-0.348 0.053,-0.522 v -0.014 c 0.013,-0.138 0.027,-0.277 0.039,-0.416 0.071,-0.788 0.131,-1.58 0.179,-2.375 0.009,-0.13 0.016,-0.261 0.024,-0.392 v -0.006 l 0.026,-0.491 0.006,-0.11 c 0.016,-0.332 0.03,-0.664 0.041,-0.996 v -0.012 l 0.005,-0.13 c 0.005,-0.109 0.009,-0.219 0.009,-0.329 l 0.002,-0.044 c 0.004,-0.103 0.008,-0.209 0.008,-0.314 l 0.003,-0.09 c 0.003,-0.105 0.006,-0.209 0.006,-0.314 l 0.002,-0.089 c 0.003,-0.133 0.006,-0.267 0.006,-0.4 z m -94.572,75.706 c 6.002,-8.801 5.576,-15.407 -2.658,-23.637 -8.236,-8.231 -13.029,-20.267 -13.029,-20.267 0,0 -1.789,-6.991 -5.869,-6.349 -4.08,0.642 -7.073,11.089 1.47,17.484 8.542,6.395 -1.7,10.731 -4.988,4.73 -3.288,-6.002 -12.265,-21.429 -16.919,-24.38 -4.654,-2.951 -7.927,-1.297 -6.83,4.785 0.545,3.019 5.613,8.172 10.348,12.986 4.804,4.884 9.265,9.42 8.311,11.025 -1.893,3.187 -8.56,-3.745 -8.56,-3.745 0,0 -20.876,-18.998 -25.42,-14.047 -4.19,4.563 2.271,8.442 12.227,14.421 0.846,0.508 1.718,1.032 2.611,1.572 11.391,6.896 12.277,8.715 10.66,11.324 -0.597,0.964 -4.41,-1.325 -9.1,-4.14 -7.995,-4.801 -18.537,-11.13 -20.026,-5.465 -1.288,4.903 6.468,7.907 13.502,10.632 5.86,2.27 11.22,4.346 10.431,7.164 -0.817,2.922 -5.246,0.485 -10.087,-2.179 -5.435,-2.991 -11.39,-6.267 -13.339,-2.57 -3.683,6.99 25.41,15.219 25.65,15.28 9.4,2.438 33.272,7.604 41.615,-4.624 z m 38.665,0 c -6.002,-8.801 -5.576,-15.407 2.659,-23.637 8.235,-8.231 13.028,-20.267 13.028,-20.267 0,0 1.789,-6.991 5.869,-6.349 4.08,0.642 7.073,11.089 -1.469,17.484 -8.543,6.395 1.699,10.731 4.987,4.73 3.289,-6.002 12.26,-21.429 16.914,-24.38 4.654,-2.951 7.929,-1.297 6.831,4.785 -0.544,3.019 -5.613,8.172 -10.348,12.987 -4.804,4.884 -9.265,9.419 -8.312,11.024 1.893,3.187 8.565,-3.749 8.565,-3.749 0,0 20.875,-18.997 25.421,-14.046 4.189,4.562 -2.272,8.442 -12.229,14.421 -0.871,0.523 -1.741,1.047 -2.61,1.572 -11.391,6.896 -12.277,8.715 -10.661,11.323 0.598,0.965 4.411,-1.325 9.1,-4.14 7.996,-4.8 18.538,-11.13 20.027,-5.464 1.289,4.903 -6.468,7.907 -13.502,10.632 -5.86,2.27 -11.22,4.346 -10.432,7.164 0.816,2.921 5.244,0.484 10.084,-2.18 5.435,-2.991 11.391,-6.269 13.339,-2.569 3.684,6.994 -25.414,15.215 -25.649,15.275 -9.4,2.446 -33.272,7.612 -41.612,-4.616 z"
       fill="#ffd21e"
       fill-rule="evenodd"
       id="path3" />
    <path
       clip-rule="evenodd"
       d="m 152.047,102.567 c 1.182,0.418 2.061,1.69 2.897,2.901 1.13,1.636 2.182,3.159 3.796,2.301 a 10.909,10.909 0 0 0 4.247,-15.214 10.912,10.912 0 0 0 -7.742,-5.198 10.904,10.904 0 0 0 -11.689,6.589 10.909,10.909 0 0 0 0.436,9.314 c 0.748,1.407 2.408,0.743 4.16,0.042 1.373,-0.549 2.804,-1.121 3.895,-0.735 z m -51.375,0 c -1.182,0.418 -2.061,1.691 -2.897,2.901 -1.13,1.637 -2.183,3.159 -3.796,2.301 a 10.903,10.903 0 0 1 8.263,-20.068 10.909,10.909 0 0 1 7.707,9.348 10.906,10.906 0 0 1 -1.221,6.211 c -0.749,1.407 -2.409,0.743 -4.161,0.043 -1.374,-0.55 -2.803,-1.122 -3.895,-0.736 z m 43.427,46.751 c 8.143,-6.415 11.134,-16.889 11.134,-23.341 0,-5.1 -3.431,-3.495 -8.924,-0.775 l -0.31,0.153 c -5.042,2.497 -11.754,5.822 -19.122,5.822 -7.369,0 -14.081,-3.325 -19.122,-5.823 -5.671,-2.809 -9.228,-4.571 -9.228,0.624 0,6.656 3.182,17.585 11.916,23.934 a 18.968,18.968 0 0 1 11.575,-9.786 c 0.872,-0.26 1.77,1.241 2.689,2.778 0.887,1.482 1.794,2.998 2.716,2.998 0.983,0 1.948,-1.494 2.891,-2.952 0.985,-1.525 1.946,-3.01 2.875,-2.713 a 18.967,18.967 0 0 1 10.91,9.081 z"
       fill="#32343d"
       fill-rule="evenodd"
       id="path4" />
    <path
       d="m 144.097,149.317 c -4.241,3.342 -9.878,5.583 -17.219,5.583 -6.897,0 -12.291,-1.978 -16.435,-4.989 a 18.966,18.966 0 0 1 11.575,-9.786 c 1.712,-0.511 3.527,5.776 5.405,5.776 2.01,0 3.947,-6.246 5.766,-5.665 a 18.974,18.974 0 0 1 10.908,9.081 z"
       fill="#ff323d"
       id="path5" />
    <path
       clip-rule="evenodd"
       d="m 81.2,111.64 a 7.078,7.078 0 0 1 -6.65,0.655 7.062,7.062 0 0 1 -3.837,-3.837 7.082,7.082 0 0 1 0.657,-6.65 7.087,7.087 0 1 1 9.83,9.832 z m 101.413,0 a 7.08,7.08 0 0 1 -6.651,0.655 7.064,7.064 0 0 1 -3.837,-3.837 7.102,7.102 0 0 1 -0.504,-3.407 7.103,7.103 0 0 1 3.411,-5.385 7.083,7.083 0 0 1 8.656,1.07 7.079,7.079 0 0 1 1.536,7.724 7.089,7.089 0 0 1 -2.611,3.18 z"
       fill="#ffad03"
       fill-rule="evenodd"
       id="path6" />
  </g>
</svg>
