<?xml version="1.0" encoding="UTF-8" standalone="no"?>
<svg
   height="1em"
   style="flex:none;line-height:1"
   viewBox="0 0 24 24"
   width="1em"
   version="1.1"
   id="svg4"
   sodipodi:docname="12-llamaindex.svg"
   inkscape:version="1.3.2 (091e20e, 2023-11-25, custom)"
   xmlns:inkscape="http://www.inkscape.org/namespaces/inkscape"
   xmlns:sodipodi="http://sodipodi.sourceforge.net/DTD/sodipodi-0.dtd"
   xmlns="http://www.w3.org/2000/svg"
   xmlns:svg="http://www.w3.org/2000/svg">
  <sodipodi:namedview
     id="namedview4"
     pagecolor="#ffffff"
     bordercolor="#000000"
     borderopacity="0.25"
     inkscape:showpageshadow="2"
     inkscape:pageopacity="0.0"
     inkscape:pagecheckerboard="0"
     inkscape:deskcolor="#d1d1d1"
     inkscape:zoom="6.341864"
     inkscape:cx="-42.416552"
     inkscape:cy="42.33771"
     inkscape:window-width="1920"
     inkscape:window-height="1057"
     inkscape:window-x="892"
     inkscape:window-y="-8"
     inkscape:window-maximized="1"
     inkscape:current-layer="svg4" />
  <title
     id="title1">LlamaIndex</title>
  <path
     d="m 84.006197,71.341667 c -8.716667,3.85 -18.158333,2.270833 -21.791667,1 0,0.875 -0.04167,3.570833 -0.2,7.416666 -0.158333,3.85 -1.383333,6.279167 -1.979166,7.016667 0.06667,2.404167 0.120833,7.654167 -0.195834,9.416667 A 8.0416667,8.0416667 0 0 1 57.856197,100 h -5.35 c 0.475,-2.404167 2.3125,-3.941667 3.170833,-4.408333 0.475,-4.970834 -0.458333,-9.2875 -0.991666,-10.820834 -0.525,1.870834 -1.820834,6.208334 -2.770834,8.616667 A 26.741667,26.741667 0 0 1 48.943697,98.8 h -3.9625 c -0.2,-2.408333 1.125,-3.208333 1.979167,-3.208333 0.395833,-0.7375 1.345833,-3.045834 1.983333,-6.416667 C 49.57703,85.8125 48.67703,79.491667 48.15203,76.754167 V 68.1375 c -6.341666,-3.408333 -8.716666,-6.816667 -10.304166,-10.625 -1.266667,-3.041667 -0.925,-7.679167 -0.591667,-9.616667 -0.4,-0.733333 -1.554167,-2.604166 -1.983333,-5.208333 -0.591667,-3.608333 -0.2625,-6.2125 0,-7.616667 -0.395834,-0.4 -1.1875,-2.445833 -1.1875,-7.416666 0,-4.966667 1.454166,-7.545834 2.179166,-8.216667 v -2.204167 c -2.775,-0.2 -5.545833,-1.4 -7.133333,-3.004166 -1.583333,-1.604167 -0.395833,-4.008334 0.595833,-4.8083337 0.991667,-0.8041666 1.979167,-0.2041666 3.366667,-0.6041666 1.3875,-0.4 2.575,-0.8 3.166667,-2 C 36.743697,5.8458333 35.806197,1.8666667 35.27703,0 c 2.375,0.32083333 3.895834,2.4041667 4.358334,3.4083333 V 0 c 2.970833,1.4041667 8.320833,4.8083333 10.104166,12.225 1.425,5.933333 2.441667,18.370833 2.770834,23.845833 7.595833,0.06667 17.2375,-1.083333 25.954166,0.804167 7.920834,1.716667 11.4875,5.208333 15.645834,5.208333 4.1625,0 6.541666,-2.404166 9.508336,-0.4 2.975,2.004167 4.55833,7.616667 4.1625,11.825 -0.31667,3.366667 -2.90417,4.475 -4.15834,4.608334 -1.58333,5.291666 0,10.354166 0.9875,12.225 v 7.6125 c 0.4625,0.666666 1.3875,2.729166 1.3875,5.6125 0,2.8875 -0.925,4.808333 -1.3875,5.4125 0.79167,4.4875 -0.33333,9.083333 -0.99166,10.820833 h -5.345836 c 0.633333,-1.604167 1.716666,-2.004167 2.179166,-2.004167 0.95,-4.970833 0.2625,-9.554166 -0.2,-11.220833 -3.008333,-1.766667 -4.95,-4.875 -5.545833,-6.2125 0.06667,1.133333 -0.120833,4.2875 -1.3875,7.8125 -1.266667,3.529167 -3.166667,5.6125 -3.958333,6.2125 v 4.208333 h -5.35 c 0,-2.5625 1.45,-3.070833 2.179166,-3.004166 0.925,-1.666667 3.166667,-4.208334 3.166667,-9.216667 0,-4.229167 -2.970833,-6.216667 -5.15,-10.020833 -1.033333,-1.808334 -0.529167,-4.075 -0.195833,-5.0125 z"
     fill="url(#lobe-icons-llama-index-fill)"
     id="path1"
     style="fill:url(#lobe-icons-llama-index-fill);stroke-width:4.16667"
     inkscape:export-filename="12-llamaindex.png"
     inkscape:export-xdpi="96"
     inkscape:export-ydpi="96" />
  <defs
     id="defs4">
    <linearGradient
       gradientUnits="userSpaceOnUse"
       id="lobe-icons-llama-index-fill"
       x1="4.021"
       x2="24.613"
       y1="2.02"
       y2="19.277"
       gradientTransform="matrix(4.1666667,0,0,4.1666667,17.943697,0)">
      <stop
         offset=".062"
         stop-color="#F6DCD9"
         id="stop1" />
      <stop
         offset=".326"
         stop-color="#FFA5EA"
         id="stop2" />
      <stop
         offset=".589"
         stop-color="#45DFF8"
         id="stop3" />
      <stop
         offset="1"
         stop-color="#BC8DEB"
         id="stop4" />
    </linearGradient>
  </defs>
</svg>
