<?xml version="1.0" encoding="UTF-8" standalone="no"?>
<svg
   version="1.1"
   x="0px"
   y="0px"
   width="110px"
   height="110px"
   viewBox="0.21 -0.077 110 110"
   enable-background="new 0.21 -0.077 110 110"
   xml:space="preserve"
   id="svg4"
   sodipodi:docname="01-python.svg"
   inkscape:version="1.3.2 (091e20e, 2023-11-25, custom)"
   inkscape:export-filename="01-python.svg"
   inkscape:export-xdpi="96"
   inkscape:export-ydpi="96"
   xmlns:inkscape="http://www.inkscape.org/namespaces/inkscape"
   xmlns:sodipodi="http://sodipodi.sourceforge.net/DTD/sodipodi-0.dtd"
   xmlns="http://www.w3.org/2000/svg"
   xmlns:svg="http://www.w3.org/2000/svg"><defs
     id="defs4" /><sodipodi:namedview
     id="namedview4"
     pagecolor="#ffffff"
     bordercolor="#000000"
     borderopacity="0.25"
     inkscape:showpageshadow="2"
     inkscape:pageopacity="0.0"
     inkscape:pagecheckerboard="0"
     inkscape:deskcolor="#d1d1d1"
     inkscape:zoom="3.9136364"
     inkscape:cx="96.585366"
     inkscape:cy="87.003484"
     inkscape:window-width="1920"
     inkscape:window-height="1057"
     inkscape:window-x="892"
     inkscape:window-y="-8"
     inkscape:window-maximized="1"
     inkscape:current-layer="svg4" /><linearGradient
     id="SVGID_1_"
     gradientUnits="userSpaceOnUse"
     x1="63.8159"
     y1="56.6829"
     x2="118.4934"
     y2="1.8225"
     gradientTransform="matrix(1,0,0,-1,-53.2974,66.4321)"> <stop
   offset="0"
   style="stop-color:#387EB8"
   id="stop1" /> <stop
   offset="1"
   style="stop-color:#366994"
   id="stop2" /></linearGradient><linearGradient
     id="SVGID_2_"
     gradientUnits="userSpaceOnUse"
     x1="97.0444"
     y1="21.6321"
     x2="155.6665"
     y2="-34.5308"
     gradientTransform="matrix(1,0,0,-1,-53.2974,66.4321)"> <stop
   offset="0"
   style="stop-color:#FFE052"
   id="stop3" /> <stop
   offset="1"
   style="stop-color:#FFC331"
   id="stop4" /></linearGradient><g
     id="g4"
     transform="matrix(1.1636364,0,0,1.1636364,136.66715,-1.7760179)"
     inkscape:export-filename="01-python.png"
     inkscape:export-xdpi="96"
     inkscape:export-ydpi="96"><path
       fill="url(#SVGID_1_)"
       d="m 55.023,-0.077 c -25.971,0 -26.25,10.081 -26.25,12.156 0,3.148 0,12.594 0,12.594 h 26.75 v 3.781 c 0,0 -27.852,0 -37.375,0 -7.949,0 -17.938,4.833 -17.938,26.25 0,19.673 7.792,27.281 15.656,27.281 2.335,0 9.344,0 9.344,0 0,0 0,-9.765 0,-13.125 0,-5.491 2.721,-15.656 15.406,-15.656 15.91,0 19.971,0 26.531,0 3.902,0 14.906,-1.696 14.906,-14.406 0,-13.452 0,-17.89 0,-24.219 0.001,-3.153 -0.538,-14.656 -27.03,-14.656 z m -14.75,8.469 c 2.662,0 4.813,2.15 4.813,4.813 0,2.661 -2.151,4.813 -4.813,4.813 -2.662,0 -4.813,-2.151 -4.813,-4.813 0,-2.663 2.151,-4.813 4.813,-4.813 z"
       id="path2"
       style="fill:url(#SVGID_1_)" /><path
       fill="url(#SVGID_2_)"
       d="m 55.397,109.923 c 25.959,0 26.282,-10.271 26.282,-12.156 0,-3.148 0,-12.594 0,-12.594 H 54.897 v -3.781 c 0,0 28.032,0 37.375,0 8.009,0 17.938,-4.954 17.938,-26.25 0,-23.322 -10.538,-27.281 -15.656,-27.281 -2.336,0 -9.344,0 -9.344,0 0,0 0,10.216 0,13.125 0,5.491 -2.631,15.656 -15.406,15.656 -15.91,0 -19.476,0 -26.532,0 -3.892,0 -14.906,1.896 -14.906,14.406 0,14.475 0,18.265 0,24.219 0,5.23 3.196,14.656 27.031,14.656 z m 14.751,-8.469 c -2.662,0 -4.813,-2.151 -4.813,-4.813 0,-2.662 2.15,-4.813 4.813,-4.813 2.661,0 4.813,2.151 4.813,4.813 0,2.662 -2.152,4.813 -4.813,4.813 z"
       id="path4"
       style="fill:url(#SVGID_2_)" /></g></svg>
