<?xml version="1.0" encoding="UTF-8" standalone="no"?>
<svg
   width="487"
   height="249"
   viewBox="0 0 487 249"
   fill="none"
   version="1.1"
   id="svg1"
   sodipodi:docname="06-langgraph.svg"
   inkscape:version="1.3.2 (091e20e, 2023-11-25, custom)"
   xmlns:inkscape="http://www.inkscape.org/namespaces/inkscape"
   xmlns:sodipodi="http://sodipodi.sourceforge.net/DTD/sodipodi-0.dtd"
   xmlns="http://www.w3.org/2000/svg"
   xmlns:svg="http://www.w3.org/2000/svg">
  <defs
     id="defs1">
    <clipPath
       clipPathUnits="userSpaceOnUse"
       id="clipPath2">
      <ellipse
         style="fill:none;stroke:#000000;stroke-opacity:1"
         id="ellipse2"
         cx="156.201"
         cy="130.1675"
         rx="111.07626"
         ry="111.42338" />
    </clipPath>
  </defs>
  <sodipodi:namedview
     id="namedview1"
     pagecolor="#ffffff"
     bordercolor="#000000"
     borderopacity="0.25"
     inkscape:showpageshadow="2"
     inkscape:pageopacity="0.0"
     inkscape:pagecheckerboard="0"
     inkscape:deskcolor="#d1d1d1"
     inkscape:zoom="1.4404517"
     inkscape:cx="172.86244"
     inkscape:cy="236.38418"
     inkscape:window-width="1920"
     inkscape:window-height="1057"
     inkscape:window-x="892"
     inkscape:window-y="-8"
     inkscape:window-maximized="1"
     inkscape:current-layer="svg1" />
  <path
     fill-rule="evenodd"
     clip-rule="evenodd"
     d="m 118.02496,5.9659222 h 239.031 c 68.111,0 123.52,55.6031908 123.52,123.9478878 0,68.345 -55.409,123.948 -123.52,123.948 h -239.031 c -68.1108,0 -123.5190941,-55.603 -123.5190941,-123.948 0,-68.344697 55.4082941,-123.9478878 123.5190941,-123.9478878 z m 109.745,192.1368878 c 3.001,3.156 7.443,3 11.378,2.182 l 0.039,0.02 c 1.827,-1.486 -0.77,-3.368 -3.249,-5.165 -1.487,-1.077 -2.932,-2.125 -3.356,-3.038 1.373,-1.674 -2.687,-5.474 -5.847,-8.433 -1.327,-1.242 -2.495,-2.335 -3.037,-3.061 -2.248,-2.448 -3.152,-5.537 -4.062,-8.644 -0.603,-2.061 -1.208,-4.131 -2.211,-6.027 -6.176,-14.339 -13.248,-28.561 -23.165,-40.699 -6.373,-8.067 -13.646,-15.291 -20.922,-22.5183 -4.691,-4.658797 -9.382,-9.318697 -13.835,-14.205997 -4.581,-4.7297 -7.338,-10.556 -10.1,-16.392 -2.312,-4.8858 -4.627,-9.7783 -8.018,-14.0398 -10.268,-15.1963 -42.686003,-19.3461 -47.440003,2.1236 0.019,0.6624 -0.1951,1.0911 -0.7795,1.5197 -2.6302,1.9287 -4.9681,4.1108 -6.9358,6.7604 -4.812197,6.7215 -5.552597,18.1188 0.448,24.1583 0.009,-0.1295 0.0172,-0.2587 0.0257,-0.3875 0.2005,-3.0496 0.388,-5.9003 2.7993,-8.0873 4.6373,3.9939 11.670303,5.4161 17.047303,2.4353 6.483,9.2999 8.548,20.542597 10.621,31.822597 1.726,9.398 3.457,18.821 7.751,27.171 0.089,0.147 0.177,0.295 0.266,0.443 2.524,4.202 5.089,8.472 8.326,12.142 1.176,1.823 3.59,3.791 6,5.755 3.18,2.591 6.353,5.177 6.663,7.416 0.015,0.974 0.01,1.961 0.006,2.954 -0.025,5.879 -0.051,11.967 3.716,16.801 2.084,4.228 -3.02,8.475 -7.131,7.949 -2.254,0.312 -4.716,-0.282 -7.161,-0.871 -3.346,-0.807 -6.659,-1.607 -9.36,-0.064 -0.758,0.82 -1.846,0.849 -2.94,0.877 -1.297,0.035 -2.601,0.069 -3.373,1.422 -0.158,0.402 -0.528,0.856 -0.913,1.328 -0.846,1.036 -1.762,2.159 -0.665,3.016 0.099,-0.074 0.197,-0.149 0.294,-0.224 1.663,-1.269 3.248,-2.479 5.493,-1.724 -0.299,1.658 0.772,2.103 1.843,2.547 0.186,0.077 0.373,0.155 0.553,0.239 -0.011,0.385 -0.087,0.774 -0.163,1.159 -0.18,0.921 -0.356,1.824 0.358,2.62 0.339,-0.344 0.639,-0.732 0.939,-1.12 0.735,-0.95 1.474,-1.904 2.802,-2.25 2.92,3.9 5.862,2.28 9.554,0.248 4.164,-2.293 9.281,-5.111 16.396,-1.125 -2.727,-0.136 -5.163,0.195 -6.994,2.455 -0.448,0.507 -0.838,1.091 -0.039,1.754 4.21,-2.728 5.961,-1.748 7.61,-0.825 1.19,0.666 2.326,1.302 4.294,0.493 0.465,-0.242 0.93,-0.493 1.396,-0.745 3.161,-1.705 6.366,-3.434 10.118,-2.839 -2.803,0.808 -3.8,2.584 -4.888,4.524 -0.539,0.959 -1.099,1.957 -1.911,2.898 -0.429,0.429 -0.624,0.936 -0.137,1.656 5.869,-0.488 8.087,-1.976 11.083,-3.986 1.429,-0.959 3.036,-2.038 5.302,-3.183 2.505,-1.542 5.009,-0.556 7.436,0.4 2.633,1.037 5.175,2.037 7.527,-0.264 0.743,-0.7 1.674,-0.708 2.602,-0.717 0.338,-0.003 0.675,-0.006 1.002,-0.043 -0.732,-3.92 -4.861,-3.874 -9.052,-3.827 -4.847,0.054 -9.778,0.109 -9.632,-5.972 4.504,-3.076 4.546,-8.415 4.585,-13.461 0.01,-1.218 0.019,-2.419 0.091,-3.567 3.313,1.847 6.817,3.291 10.299,4.725 3.276,1.35 6.533,2.692 9.593,4.354 3.195,5.143 8.182,11.962 14.826,11.514 0.175,-0.526 0.331,-0.974 0.526,-1.5 0.383,0.067 0.787,0.169 1.199,0.273 1.743,0.442 3.611,0.915 4.509,-1.15 z m 130.213,-58.45 c 3.847,3.838 9.064,5.994 14.504,5.994 5.44,0 10.658,-2.156 14.505,-5.994 3.846,-3.837 6.007,-9.042 6.007,-14.469 0,-5.427 -2.161,-10.632 -6.007,-14.469 -3.847,-3.838 -9.065,-5.9941 -14.505,-5.9941 -2.547,0 -5.046,0.4727 -7.377,1.3701 l -11.757,-17.161997 -8.194,5.6135 11.818,17.250497 c -3.216,3.706 -5.002,8.457 -5.002,13.391 0,5.427 2.161,10.632 6.008,14.469 z m -36.808,-55.576397 c 2.878,1.4222 6.051,2.1502 9.262,2.1255 4.383,-0.0337 8.639,-1.4668 12.146,-4.0892 3.506,-2.6224 6.079,-6.2963 7.34,-10.4832 1.262,-4.1869 1.146,-8.6669 -0.331,-12.7833 -1.476,-4.1164 -4.235,-7.6529 -7.873,-10.0912 -2.666,-1.787 -5.715,-2.9245 -8.903,-3.3209 -3.187,-0.3963 -6.423,-0.0405 -9.447,1.039 -3.024,1.0794 -5.752,2.8522 -7.964,5.1757 -2.212,2.3234 -3.846,5.1326 -4.77,8.2012 -0.925,3.0686 -1.114,6.3109 -0.552,9.4658 0.561,3.1549 1.857,6.1342 3.784,8.698 1.926,2.5638 4.429,4.6404 7.308,6.0626 z m 0,118.824397 c 2.878,1.422 6.051,2.15 9.262,2.125 4.383,-0.034 8.639,-1.467 12.146,-4.089 3.506,-2.622 6.079,-6.296 7.34,-10.483 1.262,-4.187 1.146,-8.667 -0.331,-12.783 -1.476,-4.117 -4.235,-7.653 -7.873,-10.092 -2.666,-1.787 -5.715,-2.924 -8.903,-3.321 -3.187,-0.396 -6.423,-0.04 -9.447,1.039 -3.024,1.08 -5.752,2.853 -7.964,5.176 -2.212,2.324 -3.846,5.133 -4.77,8.201 -0.925,3.069 -1.114,6.311 -0.552,9.466 0.561,3.155 1.857,6.134 3.784,8.698 1.926,2.564 4.429,4.64 7.308,6.063 z m 18.857,-72.629 v -10.174 h -31.394 c -0.79,-3.084 -2.296,-5.942 -4.398,-8.342 l 11.812,-17.498497 -8.59,-5.6971 -11.812,17.498597 c -2.164,-0.7824 -4.446,-1.1951 -6.749,-1.2211 -5.424,0 -10.626,2.1441 -14.462,5.9591 -3.836,3.816 -5.99,8.992 -5.99,14.388 0,5.396 2.154,10.571 5.99,14.387 3.836,3.816 9.038,5.96 14.462,5.96 2.303,-0.026 4.585,-0.439 6.749,-1.221 l 11.812,17.498 8.487,-5.697 -11.709,-17.498 c 2.102,-2.401 3.608,-5.258 4.398,-8.342 z"
     fill="#1c3c3c"
     id="path1"
     clip-path="url(#clipPath2)"
     transform="translate(96.497505,-6.2480399)"
     inkscape:export-filename="06-langgraph.png"
     inkscape:export-xdpi="96"
     inkscape:export-ydpi="96" />
</svg>
