<?xml version="1.0" encoding="UTF-8" standalone="no"?>
<!-- Uploaded to: SVG Repo, www.svgrepo.com, Generator: SVG Repo Mixer Tools -->

<svg
   fill="#000000"
   width="800px"
   height="800px"
   viewBox="0 0 24 24"
   role="img"
   version="1.1"
   id="svg1"
   sodipodi:docname="08-openai.svg"
   inkscape:version="1.3.2 (091e20e, 2023-11-25, custom)"
   xmlns:inkscape="http://www.inkscape.org/namespaces/inkscape"
   xmlns:sodipodi="http://sodipodi.sourceforge.net/DTD/sodipodi-0.dtd"
   xmlns="http://www.w3.org/2000/svg"
   xmlns:svg="http://www.w3.org/2000/svg">
  <defs
     id="defs1" />
  <sodipodi:namedview
     id="namedview1"
     pagecolor="#ffffff"
     bordercolor="#000000"
     borderopacity="0.25"
     inkscape:showpageshadow="2"
     inkscape:pageopacity="0.0"
     inkscape:pagecheckerboard="0"
     inkscape:deskcolor="#d1d1d1"
     inkscape:zoom="0.38051184"
     inkscape:cx="1043.3315"
     inkscape:cy="542.69008"
     inkscape:window-width="1920"
     inkscape:window-height="1057"
     inkscape:window-x="892"
     inkscape:window-y="-8"
     inkscape:window-maximized="1"
     inkscape:current-layer="svg1" />
  <title
     id="title1">OpenAI icon</title>
  <g
     id="g8"
     inkscape:export-filename="08-openai.png"
     inkscape:export-xdpi="96"
     inkscape:export-ydpi="96">
    <path
       d="m 59.021887,9.8999412 a 5.9847,5.9847 0 0 0 -0.5157,-4.9108 6.0462,6.0462 0 0 0 -6.5098,-2.9 6.0651,6.0651 0 0 0 -10.2757,2.1715 5.9847,5.9847 0 0 0 -3.9977,2.9 6.0462,6.0462 0 0 0 0.7427,7.0965998 5.98,5.98 0 0 0 0.511,4.9107 6.051,6.051 0 0 0 6.5146,2.9001 5.9847,5.9847 0 0 0 4.5086,2.0108 6.0557,6.0557 0 0 0 5.7718,-4.2058 5.9894,5.9894 0 0 0 3.9977,-2.9001 6.0557,6.0557 0 0 0 -0.7475,-7.0728998 z m -9.022,12.6080998 a 4.4755,4.4755 0 0 1 -2.8764,-1.0408 l 0.1419,-0.0804 4.7783,-2.7582 a 0.7948,0.7948 0 0 0 0.3927,-0.6813 v -6.7369 l 2.02,1.1686 a 0.071,0.071 0 0 1 0.038,0.052 v 5.5826 a 4.504,4.504 0 0 1 -4.4945,4.4944 z m -9.6607,-4.1254 a 4.4708,4.4708 0 0 1 -0.5346,-3.0137 l 0.142,0.0852 4.783,2.7582 a 0.7712,0.7712 0 0 0 0.7806,0 l 5.8428,-3.3685 v 2.3324 a 0.0804,0.0804 0 0 1 -0.0332,0.0615 l -4.8398,2.7913 a 4.4992,4.4992 0 0 1 -6.1408,-1.6464 z m -1.2584,-10.4081998 a 4.485,4.485 0 0 1 2.3655,-1.9728 v 5.6771998 a 0.7664,0.7664 0 0 0 0.3879,0.6765 l 5.8144,3.3543 -2.0201,1.1685 a 0.0757,0.0757 0 0 1 -0.071,0 l -4.8303,-2.7865 a 4.504,4.504 0 0 1 -1.6464,-6.1407998 z m 16.5963,3.8557998 -5.8333,-3.3873998 2.0154,-1.164 a 0.0757,0.0757 0 0 1 0.071,0 l 4.8303,2.7912998 a 4.4944,4.4944 0 0 1 -0.6765,8.1042 v -5.6772 a 0.79,0.79 0 0 0 -0.407,-0.667 z m 2.0107,-3.0230998 -0.142,-0.0852 -4.7735,-2.7818 a 0.7759,0.7759 0 0 0 -0.7854,0 l -5.8379,3.3684 v -2.3323 a 0.0662,0.0662 0 0 1 0.0284,-0.0615 l 4.8303,-2.7866 a 4.4992,4.4992 0 0 1 6.6802,4.66 z m -12.6413,4.1346998 -2.02,-1.1638 a 0.0804,0.0804 0 0 1 -0.038,-0.0567 V 6.1530412 a 4.4992,4.4992 0 0 1 7.3757,-3.4537 l -0.142,0.0805 -4.7782,2.758 a 0.7948,0.7948 0 0 0 -0.3927,0.6813 z m 1.0976,-2.3654 2.602,-1.4997998 2.6069,1.4997998 v 2.9994 l -2.5974,1.4997 -2.6067,-1.4997 z"
       id="path1" />
    <path
       style="fill:#ffffff;stroke:#ffffff;stroke-width:2.62804;fill-opacity:1;stroke-opacity:1"
       d="m 1465.8148,409.24149 -30.8534,-17.66366 -0.026,-102.59839 c -0.029,-112.80897 0.6026,-118.68166 16.2298,-151.00739 11.4922,-23.77224 42.0452,-54.114128 65.897,-65.441685 46.8314,-22.24096 98.4989,-20.125274 141.3658,5.788669 7.6482,4.623442 13.8551,9.555993 13.7932,10.961224 -0.062,1.405231 -37.0507,23.929552 -82.1975,50.054042 -53.6343,31.0359 -83.3227,49.73422 -85.656,53.94787 -2.8507,5.14793 -3.5899,29.37723 -3.6642,120.1115 -0.051,62.51448 -0.9801,113.62866 -2.0642,113.58708 -1.084,-0.0416 -15.8551,-8.02424 -32.8245,-17.73926 z"
       id="path2"
       transform="scale(0.03)" />
    <path
       style="fill:#ffffff;fill-opacity:1;stroke:#ffffff;stroke-width:2.62804;stroke-opacity:1"
       d="m 1540.1298,268.717 0.099,-37.44956 59.5208,-34.1645 c 131.6254,-75.55202 136.0566,-77.52716 173.9307,-77.52716 42.142,0 75.3249,13.97722 105.4213,44.40535 22.8187,23.0701 32.1415,39.03467 39.4245,67.51085 5.1172,20.00813 7.0822,54.81618 3.2276,57.17351 -1.084,0.66297 -39.2235,-20.54126 -84.7542,-47.12052 -57.9688,-33.84009 -85.1869,-48.33464 -90.8021,-48.35501 -5.6854,-0.0206 -36.5296,16.41284 -105.9964,56.47376 -53.8877,31.07656 -98.4709,56.50284 -99.0738,56.50284 -0.6029,0 -1.0517,-16.8523 -0.9973,-37.44956 z"
       id="path3"
       transform="scale(0.03)" />
    <path
       style="fill:#ffffff;fill-opacity:1;stroke:#ffffff;stroke-width:2.62804;stroke-opacity:1"
       d="m 1871.1639,507.11631 c 0,-77.63476 -0.7125,-97.45214 -3.7098,-103.1858 -2.7231,-5.20912 -28.9509,-21.70989 -98.6122,-62.04015 -52.1964,-30.21896 -96.7677,-56.3074 -99.0474,-57.97433 -3.4643,-2.53315 0.8162,-5.90273 26.07,-20.52217 16.6181,-9.62027 31.2545,-17.82774 32.5252,-18.23881 2.2669,-0.73337 116.8576,64.33694 161.5554,91.73926 26.9248,16.50643 44.9069,35.26473 58.3751,60.89479 22.0779,42.01421 22.6184,90.15433 1.4942,133.06379 -13.7661,27.96287 -44.1682,57.94501 -69.4814,68.52153 l -9.1691,3.8311 z"
       id="path4"
       transform="scale(0.03)" />
    <path
       style="fill:#ffffff;fill-opacity:1;stroke:#ffffff;stroke-width:2.62804;stroke-opacity:1"
       d="m 1629.3843,743.92758 c -16.797,-4.65802 -36.353,-13.68762 -46.6439,-21.53686 l -8.8267,-6.73246 83.5811,-48.20688 c 45.9696,-26.51382 85.3551,-50.87486 87.5232,-54.13568 3.2998,-4.96278 4.1561,-24.64192 5.2561,-120.78101 l 1.314,-114.85226 32.3755,18.73043 32.3755,18.73043 -0.9608,105.16501 c -0.9104,99.63362 -1.2618,106.0635 -6.6826,122.24727 -16.7079,49.88181 -56.9095,88.61283 -104.7917,100.95825 -19.0692,4.91662 -57.5126,5.13007 -74.5197,0.41376 z"
       id="path5"
       transform="scale(0.03)" />
    <path
       style="fill:#ffffff;fill-opacity:1;stroke:#ffffff;stroke-width:2.62804;stroke-opacity:1"
       d="m 1457.2477,685.5345 c -33.7235,-5.05231 -62.9366,-19.86054 -86.8052,-44.00188 -30.0858,-30.42972 -43.2827,-61.93711 -43.2827,-103.33675 0,-11.98239 0.7912,-21.78618 1.7582,-21.78618 0.9671,0 38.6432,21.28712 83.7249,47.30471 64.6983,37.33884 83.9561,47.3047 91.4105,47.3047 7.4922,0 28.6161,-11.05489 102.209,-53.48972 51.0207,-29.41934 95.4258,-54.88723 98.678,-56.5953 l 5.9131,-3.10559 -0.033,37.54202 -0.033,37.54202 -59.3394,34.16451 c -100.6444,57.94583 -117.4429,66.98617 -134.062,72.1475 -16.772,5.20879 -46.5987,8.33835 -60.138,6.30996 z"
       id="path6"
       transform="scale(0.03)" />
    <path
       style="fill:#ffffff;fill-opacity:1;stroke:#ffffff;stroke-width:2.62804;stroke-opacity:1"
       d="m 1433.1729,511.64235 c -46.4858,-27.0091 -90.5471,-54.21136 -97.9139,-60.44946 -7.3668,-6.2381 -18.3474,-18.6359 -24.4013,-27.55067 -38.3548,-56.47991 -33.7031,-130.89478 11.3413,-181.43354 12.2765,-13.77387 39.1637,-33.07891 51.5166,-36.98896 l 5.8213,-1.84258 0.7488,98.64235 0.7489,98.64236 6.5701,6.47614 c 4.8674,4.79782 145.0644,87.47114 192.8079,113.69769 4.201,2.30768 0.6257,5.17345 -24.9663,20.01149 -16.4283,9.52493 -31.6435,17.8996 -33.8116,18.61035 -2.1682,0.71076 -41.976,-20.80608 -88.4618,-47.81517 z"
       id="path7"
       transform="scale(0.03)" />
    <path
       style="fill:#ffffff;fill-opacity:1;stroke:#ffffff;stroke-width:2.62804;stroke-opacity:1"
       d="m 1582.5929,476.21669 -42.6128,-24.19396 0.6824,-49.81295 0.6825,-49.81295 41.9196,-24.02315 41.9196,-24.02316 42.1776,24.44195 42.1777,24.44195 v 49.33955 49.33955 l -27.5945,15.95792 c -15.1769,8.77685 -34.152,19.68871 -42.1668,24.24857 l -14.5724,8.29065 z"
       id="path8"
       transform="scale(0.03)" />
  </g>
</svg>
