<?xml version="1.0" encoding="UTF-8" standalone="no"?>
<!-- Uploaded to: SVG Repo, www.svgrepo.com, Generator: SVG Repo Mixer Tools -->

<svg
   width="800px"
   height="800px"
   viewBox="0 0 24 24"
   version="1.1"
   id="svg1"
   sodipodi:docname="15-docker.svg"
   inkscape:version="1.3.2 (091e20e, 2023-11-25, custom)"
   xmlns:inkscape="http://www.inkscape.org/namespaces/inkscape"
   xmlns:sodipodi="http://sodipodi.sourceforge.net/DTD/sodipodi-0.dtd"
   xmlns="http://www.w3.org/2000/svg"
   xmlns:svg="http://www.w3.org/2000/svg">
  <defs
     id="defs1" />
  <sodipodi:namedview
     id="namedview1"
     pagecolor="#ffffff"
     bordercolor="#000000"
     borderopacity="0.25"
     inkscape:showpageshadow="2"
     inkscape:pageopacity="0.0"
     inkscape:pagecheckerboard="0"
     inkscape:deskcolor="#d1d1d1"
     inkscape:zoom="0.19025592"
     inkscape:cx="-1303.5074"
     inkscape:cy="-407.34607"
     inkscape:window-width="1920"
     inkscape:window-height="1057"
     inkscape:window-x="892"
     inkscape:window-y="-8"
     inkscape:window-maximized="1"
     inkscape:current-layer="svg1" />
  <g
     id="g1"
     inkscape:export-filename="15-docker.png"
     inkscape:export-xdpi="96"
     inkscape:export-ydpi="96">
    <path
       fill="#0db7ed"
       fill-rule="evenodd"
       d="m 35.325034,-16.320871 c 0.05585,0 0.109071,0.01053 0.158225,0.02954 -0.05322,0.03085 -0.08934,0.08856 -0.08934,0.154517 0,0.09861 0.07989,0.178377 0.178496,0.178377 0.06751,0 0.126113,-0.03749 0.156491,-0.09287 0.02135,0.05161 0.03331,0.108234 0.03331,0.167673 0,0.241463 -0.195778,0.437181 -0.437181,0.437181 -0.241404,0 -0.437242,-0.195718 -0.437242,-0.437181 0,-0.241523 0.195838,-0.437242 0.437242,-0.437242 z m 0,1.185132 c -0.412425,0 -0.74801,-0.335465 -0.74801,-0.74789 0,-0.412425 0.335585,-0.747951 0.74801,-0.747951 0.412365,0 0.74789,0.335526 0.74789,0.747951 0,0.412425 -0.335525,0.74789 -0.74789,0.74789 z m 13.443732,-4.901562 c -2.123957,5.627985 -6.920634,8.134827 -12.575708,8.134827 -2.672003,0 -4.803674,-0.919032 -6.167003,-2.451409 l 0.01005,-0.0066 c 0.392812,0.01991 0.744303,0.02667 1.101116,0.02667 0.326257,0 0.645397,-0.0034 0.940978,-0.02003 0.02571,-0.0014 0.05788,-0.005 0.08342,-0.0066 2.39e-4,-5.9e-5 0.09119,-0.006 0.0467,-0.0067 0.751179,-0.04634 1.33343,-0.15075 1.876394,-0.305686 1.19e-4,-6e-5 2.39e-4,-6e-5 3.58e-4,-1.2e-4 0.09867,-0.02822 0.194343,-0.05794 0.286013,-0.0897 0.102553,-0.03558 0.15685,-0.147521 0.12133,-0.250075 -0.03552,-0.102613 -0.147402,-0.157028 -0.250015,-0.121329 -0.689647,0.238952 -1.59947,0.370507 -2.714519,0.395203 h -2.99e-4 c -0.567361,0.01256 -1.187583,-0.0024 -1.860248,-0.04563 h -6e-5 c -0.13915,-0.185791 -0.267954,-0.378878 -0.385756,-0.578842 l -0.18621,-0.340488 c -0.562577,-1.10602 -0.808884,-2.39807 -0.678166,-3.801224 h 16.362221 c 1.344194,0 2.656934,-0.501644 3.279907,-1.055012 -1.116304,-0.90767 -1.005678,-3.063678 -0.294205,-3.886376 0.617472,0.496142 1.613164,1.541227 1.441904,2.871608 0.777012,-0.390599 2.126468,-0.583626 3.175859,0.02195 -0.658852,1.28601 -2.107094,1.670211 -3.614057,1.515634 z m -18.13086,0.135083 h 2.212637 v -2.212756 h -2.212637 z m 2.553005,0 h 2.212876 v -2.212756 h -2.212876 z m 0,-2.553125 h 2.212876 v -2.212697 h -2.212876 z m 2.553185,2.553125 h 2.212757 v -2.212756 h -2.212757 z m 0,-2.553125 h 2.212757 v -2.212697 h -2.212757 z m 2.553066,2.553125 h 2.212756 v -2.212756 h -2.212756 z m 0,-2.553125 h 2.212756 v -2.212697 h -2.212756 z m 0,-2.553006 h 2.212756 v -2.212756 h -2.212756 z m 2.553065,5.106131 h 2.212756 v -2.212756 h -2.212756 z"
       id="path1" />
  </g>
</svg>
